<svg width="48" height="48" viewBox="0 0 48 48" fill="none" xmlns="http://www.w3.org/2000/svg">
<path d="M24.6321 47.619L26.7534 45.4729C27.2555 44.9649 27.2555 44.1413 26.7534 43.6333L10.1323 26.8182H46.7143C47.4243 26.8182 48 26.2358 48 25.5175V22.4824C48 21.7641 47.4243 21.1817 46.7143 21.1817H10.1323L26.7534 4.3665C27.2555 3.85856 27.2555 3.03498 26.7534 2.52694L24.6321 0.380952C24.13 -0.126984 23.316 -0.126984 22.8138 0.380952L0.376554 23.0802C-0.125518 23.5882 -0.125518 24.4117 0.376554 24.9198L22.8138 47.6191C23.3159 48.127 24.1299 48.127 24.6321 47.619Z" fill="white"/>
</svg>
