<svg width="107" height="107" viewBox="0 0 107 107" fill="none" xmlns="http://www.w3.org/2000/svg">
<path d="M84.7083 13.375H22.2917C17.3875 13.375 13.375 17.3875 13.375 22.2917V84.7083C13.375 89.6125 17.3875 93.625 22.2917 93.625H84.7083C89.6125 93.625 93.625 89.6125 93.625 84.7083V22.2917C93.625 17.3875 89.6125 13.375 84.7083 13.375ZM84.7083 84.7083H22.2917V64.2892L26.7054 68.7029L44.5387 50.8696L62.3721 68.7029L80.2054 50.9142L84.7083 55.4171V84.7083ZM84.7083 42.7554L80.2054 38.2525L62.3721 56.1304L44.5387 38.2971L26.7054 56.1304L22.2917 51.6721V22.2917H84.7083V42.7554Z" fill="#82B8B2"/>
</svg>
