<svg width="24" height="24" viewBox="0 0 24 24" fill="none" xmlns="http://www.w3.org/2000/svg">
<path d="M12 0C5.37256 0 0 5.37256 0 12C0 18.6274 5.37256 24 12 24C18.6274 24 24 18.6274 24 12C24 5.37256 18.6274 0 12 0ZM12 2.32258C17.3483 2.32258 21.6774 6.65085 21.6774 12C21.6774 17.3483 17.3491 21.6774 12 21.6774C6.65168 21.6774 2.32258 17.3491 2.32258 12C2.32258 6.65168 6.65085 2.32258 12 2.32258ZM18.7841 8.62582L17.6936 7.52656C17.4678 7.2989 17.1001 7.2974 16.8725 7.52327L10.0329 14.3079L7.13971 11.3913C6.91389 11.1636 6.54624 11.1621 6.31858 11.388L5.21927 12.4784C4.99161 12.7042 4.99011 13.0719 5.21598 13.2996L9.60861 17.7278C9.83444 17.9554 10.2021 17.9569 10.4297 17.7311L18.7808 9.447C19.0084 9.22113 19.0099 8.85348 18.7841 8.62582Z" fill="#82B8B2"/>
</svg>
