<svg width="20" height="20" viewBox="0 0 20 20" fill="none" xmlns="http://www.w3.org/2000/svg">
<path d="M10 13.9999C9.4477 13.9999 9 14.4476 9 15C9 15.5523 9.4477 16 10 16C10.5523 16 11 15.5523 11 15C11 14.4476 10.5523 13.9999 10 13.9999ZM10 13.9999L10.0071 8.50008M10 15L10.0071 15.0071M14 15C14 17.2092 12.2091 19 10 19C7.79086 19 6 17.2092 6 15C6 13.9855 6.37764 13.0592 7 12.3541V4.00003C7 2.34316 8.3431 1 10 1C11.6569 1 13 2.34316 13 4.00003V12.3541C13.6224 13.0592 14 13.9855 14 15Z" stroke="#0E2825" stroke-width="1.66667" stroke-linecap="round" stroke-linejoin="round"/>
</svg>
