<svg width="44" height="44" viewBox="0 0 44 44" fill="none" xmlns="http://www.w3.org/2000/svg">
<path d="M16.5714 27.7492V26.125C16.5714 25.3687 15.9607 24.75 15.2143 24.75C14.4679 24.75 13.8571 25.3687 13.8571 26.125V27.7492C12.2795 28.3164 11.1429 29.8289 11.1429 31.625C11.1429 33.9023 12.9665 35.75 15.2143 35.75C17.4621 35.75 19.2857 33.9023 19.2857 31.625C19.2857 29.8289 18.1491 28.3164 16.5714 27.7492ZM24.7143 9.625C24.7143 4.30547 20.4647 0 15.2143 0C9.96384 0 5.71429 4.30547 5.71429 9.625V23.9336C4.0433 26.0477 3 28.7031 3 31.625C3 38.457 8.47098 44 15.2143 44C21.9576 44 27.4286 38.457 27.4286 31.625C27.4286 28.7031 26.3853 26.0477 24.7143 23.9336V9.625ZM15.2143 39.875C10.7272 39.875 7.07143 36.1711 7.07143 31.625C7.07143 29.3047 8.06384 27.5602 8.89509 26.5117L9.78571 25.3859V9.625C9.78571 6.59141 12.2201 4.125 15.2143 4.125C18.2085 4.125 20.6429 6.59141 20.6429 9.625V25.3773L21.5335 26.5031C22.3647 27.5602 23.3571 29.3047 23.3571 31.625C23.3571 36.1711 19.7013 39.875 15.2143 39.875ZM34.2143 0C30.4737 0 27.4286 3.08516 27.4286 6.875C27.4286 10.6648 30.4737 13.75 34.2143 13.75C37.9549 13.75 41 10.6648 41 6.875C41 3.08516 37.9549 0 34.2143 0ZM34.2143 9.625C32.7129 9.625 31.5 8.39609 31.5 6.875C31.5 5.35391 32.7129 4.125 34.2143 4.125C35.7156 4.125 36.9286 5.35391 36.9286 6.875C36.9286 8.39609 35.7156 9.625 34.2143 9.625Z" fill="#82B8B2"/>
</svg>
