<svg width="118" height="64" viewBox="0 0 118 64" fill="none" xmlns="http://www.w3.org/2000/svg">
<g clip-path="url(#clip0_174_759)">
<path d="M63.7972 61.6842C62.7034 61.4552 61.6302 61.2115 60.5467 61.0082C59.1923 60.7541 57.8379 60.5246 56.4776 60.3027C56.191 60.2568 56.0366 60.1699 55.9483 59.8578C55.4065 57.9451 55.2635 55.9947 55.4222 54.0241C55.6443 51.261 56.2181 48.5532 56.7224 45.8338C56.976 44.4676 57.171 43.0932 57.3221 41.7144C57.3763 41.2034 57.2972 40.6553 57.1715 40.1503C56.9825 39.3929 56.3047 39.0229 55.5306 39.142C54.8723 39.2431 54.3994 39.6454 53.9638 40.1017C52.5271 41.6056 51.7356 43.4533 51.1836 45.4289C50.6835 47.217 50.3953 49.0434 50.1965 50.8861C50.009 52.6179 49.8108 54.3487 49.6547 56.0832C49.5599 57.115 49.5339 58.1517 49.477 59.1868C49.4705 59.3053 49.4646 59.4239 49.4554 59.6004L43.7458 59.3523C43.8043 58.7905 43.8515 58.2544 43.9165 57.7216C44.3499 54.1647 44.7833 50.6081 45.2167 47.0519C45.4334 45.2676 45.6501 43.4845 45.8273 41.6963C45.8923 41.0042 45.9009 40.3078 45.8527 39.6142C45.7769 38.4409 45.0612 38.0043 43.9707 38.4289C42.2484 39.0978 40.991 40.2733 40.2142 41.969C39.5863 43.3435 39.3609 44.8108 39.239 46.2967C39.1496 47.3897 39.0895 48.4827 38.9735 49.5685C38.4551 58.5397 38.2265 59.2775 38.2265 59.2775C37.2437 60.3158 32.0993 61.2186 32.0993 61.2186C32.5045 60.8984 32.8577 60.2683 33.1589 59.4092C35.2122 53.5907 35.0951 37.2506 35.0735 35.2773C35.0773 35.2661 35.0819 35.2551 35.087 35.2445C35.1688 31.6147 35.7041 28.0527 36.1456 24.4786C35.7171 25.2251 35.2907 25.9727 34.86 26.7192C34.0588 28.1046 33.2093 29.4517 32.1475 30.6589C31.5396 31.3491 30.8689 31.9213 29.9393 32.088C28.3314 32.376 26.8692 31.9863 25.5679 31.0299C24.9178 30.5507 24.6561 29.7911 24.5234 29.0205C24.4394 28.5336 24.4465 28.0232 24.4692 27.5259C24.5884 24.994 24.9568 22.4938 25.4319 20.0072C25.608 19.0782 25.8138 18.1563 25.9401 17.2201C26.0197 16.6272 25.9022 16.0359 25.4866 15.5577C25.0093 15.008 24.4145 14.9484 23.7584 15.1533C22.9214 15.4145 22.3076 15.9791 21.7578 16.6332C20.522 18.1022 19.8302 19.8176 19.5246 21.7041C19.1601 23.9622 18.9796 26.24 18.8794 28.521C18.7554 31.3387 18.6866 34.1586 18.5955 36.9779C18.5744 37.6239 18.5647 38.2698 18.5343 38.9152C18.5292 38.9683 18.5126 39.0195 18.4857 39.0654C18.4589 39.1113 18.4224 39.1507 18.3788 39.1808C16.9703 39.8913 15.552 40.593 14.1364 41.2947C14.0622 41.3259 13.9865 41.3531 13.9094 41.3761C13.8861 41.1619 13.8514 40.9761 13.8482 40.7897C13.8086 38.5786 13.7154 36.3664 13.7534 34.1564C13.7924 31.8923 13.9267 29.6282 14.0817 27.3685C14.2545 24.8453 14.4836 22.3255 14.715 19.8067C14.8569 18.2585 15.0563 16.7152 15.2161 15.1686C15.312 14.2445 15.3927 13.3144 15.1933 12.3952C14.8612 10.865 13.2853 10.3087 12.0479 11.2765C11.2353 11.9137 10.7661 12.7903 10.4227 13.7434C9.9351 15.0921 9.68643 16.4988 9.46107 17.9087C9.05695 20.4522 8.80224 23.0175 8.69828 25.5913C8.56204 29.0573 8.64546 32.5286 8.94803 35.9839C9.19344 38.8595 9.5537 41.722 10.0516 44.5638C10.4633 46.9137 11.0739 49.2139 11.8085 51.4807C11.8329 51.5572 11.8567 51.6337 11.8914 51.7446L6.86445 53.3573C6.82761 53.2601 6.7924 53.1797 6.76747 53.0961C5.71457 49.6351 4.92351 46.0984 4.4011 42.5166C3.83873 38.6789 3.59085 34.801 3.65999 30.9223C3.70658 28.421 3.84093 25.9214 3.91569 23.4201C3.98829 20.9915 4.03434 18.5618 4.09501 16.1332C4.12102 15.0948 4.18332 14.0565 4.17411 13.0226C4.16869 12.3711 4.08851 11.7164 3.99316 11.0705C3.75967 9.48566 2.42208 8.63915 1.14246 8.45553C0.939306 8.42657 0.733983 8.41181 0.500488 8.38722C0.530826 7.70137 0.554663 7.02099 0.593127 6.34335C0.668973 5.03505 0.755653 3.72785 0.834748 2.4201C0.842875 2.28949 0.834749 2.17964 1.02707 2.16653C3.0646 2.03264 5.0019 2.37037 6.78156 3.42072C8.53629 4.45905 9.72652 5.96135 10.368 7.90795C10.3848 7.95877 10.4032 8.00851 10.4221 8.0637C10.7618 7.69045 11.0647 7.29479 11.4287 6.97072C13.1011 5.47498 15.0184 4.8722 17.2125 5.51323C19.1888 6.09087 20.6255 7.97244 20.7793 10.0371C20.8628 11.1727 20.7252 12.2892 20.5838 13.4084C20.5724 13.5024 20.5621 13.5964 20.5545 13.663C21.099 13.1504 21.618 12.6039 22.1955 12.1334C23.1441 11.3601 24.1924 10.8071 25.4222 10.5623C27.7317 10.1016 29.2616 11.6383 29.8716 13.1482C30.3592 14.3505 30.4491 15.614 30.3131 16.8802C30.1067 18.8055 29.8179 20.722 29.5763 22.6441C29.4447 23.69 29.339 24.7393 29.2231 25.7875C29.2171 25.8421 29.2231 25.8968 29.2231 26.0061C29.3033 25.9367 29.3558 25.8968 29.3986 25.853C30.1522 25.0284 30.6988 24.0671 31.1989 23.0747C33.0145 19.4562 34.8288 15.8375 36.6418 12.2187C37.0691 11.3665 37.5012 10.5173 37.9383 9.67092C37.9789 9.59114 38.0786 9.49824 38.1582 9.49059C39.7656 9.33975 41.374 9.2004 42.9798 9.0594C43.0171 9.06074 43.0542 9.06476 43.0909 9.07143C43.0296 9.51299 42.969 9.94964 42.9088 10.3868C42.5702 12.8559 42.2121 15.3227 41.8985 17.795C41.6276 19.9433 41.3665 22.0943 41.1687 24.2502C40.9629 26.487 40.8247 28.7314 40.6849 30.972C40.6194 32.0246 40.614 33.0815 40.5928 34.1367C40.5928 34.2368 40.575 34.3007 40.53 34.345L40.66 34.3346V35.9593C41.0029 35.5718 41.3313 35.1827 41.6791 34.8117C42.6466 33.7793 43.7377 32.9274 45.1316 32.5667C45.6949 32.42 46.2795 32.3756 46.8582 32.4355C47.4022 32.7303 47.9996 32.9113 48.6146 32.9678C49.6376 33.5108 50.4486 34.3867 50.9159 35.4532C51.2442 36.1894 51.4208 36.9932 51.6581 37.7387C51.9756 37.4009 52.3332 36.979 52.733 36.6036C54.1253 35.292 55.757 34.4504 57.6629 34.3034C59.4003 34.169 60.6843 35.0182 61.6025 36.4593C62.5094 37.8802 62.7798 39.4743 62.614 41.1214C62.4097 43.138 62.1367 45.1496 61.8398 47.1547C61.4492 49.7909 61.2087 52.4294 61.4194 55.0979C61.6074 57.4779 62.219 59.6944 63.7489 61.5798C63.7694 61.6124 63.7856 61.6475 63.7972 61.6842Z" fill="#F9C2C2"/>
<path d="M46.8599 32.4355C47.4039 32.7303 48.0012 32.9114 48.6162 32.9678C48.0692 32.6803 47.4733 32.4998 46.8599 32.4355Z" fill="#F9C2C2"/>
<path d="M88.245 33.3853C86.9821 31.8295 86.4772 30.0004 86.3223 28.0363C86.1484 25.8345 86.3467 23.6572 86.669 21.4817C86.9139 19.8269 87.1392 18.1672 87.3077 16.5031C87.4448 15.144 87.2216 13.8303 86.4734 12.6559C85.715 11.4667 84.6559 10.7661 83.2229 10.877C81.648 10.9984 80.3012 11.694 79.1522 12.775C78.8223 13.0849 78.5276 13.4308 78.2653 13.7117C78.0698 13.0963 77.924 12.4329 77.6532 11.8257C76.8032 9.92068 74.8101 8.94356 72.8798 9.44359C71.7286 9.74143 70.8293 10.4442 70.0307 11.2962C69.7436 11.6022 69.4727 11.9236 69.1899 12.2433V10.9027C69.0816 10.912 68.9911 10.9153 68.9028 10.9279C67.5636 11.1191 66.2255 11.3202 64.8841 11.4962C64.7102 11.5192 64.6208 11.5601 64.5785 11.6798C64.5785 11.5738 64.5785 11.5159 64.5785 11.5159L62.885 25.4235C62.7316 25.8948 62.5295 26.3485 62.282 26.7772C61.8438 27.5335 61.2576 28.1128 60.4553 28.4527C60.0397 28.6287 59.751 28.4806 59.6773 28.0385C59.6238 27.7256 59.6117 27.4069 59.6415 27.0908C59.7412 26.1503 59.8718 25.2131 59.9921 24.2748C60.3642 21.3696 60.7505 18.4656 61.1054 15.5588C61.2928 14.0363 61.3253 12.5105 61.0273 10.9923C60.3052 7.31829 57.2698 4.76673 53.5929 4.8252C50.889 4.86892 48.6358 5.97284 46.8334 8.0025C46.5794 8.28886 46.3675 8.61347 46.134 8.92279L50.0347 11.6006C50.4681 11.129 50.8343 10.665 51.2639 10.2682C52.4254 9.19603 54.5772 9.41736 55.327 11.2486C55.5133 11.7016 55.6291 12.1809 55.6705 12.6695C55.7247 13.3958 55.6851 14.1292 55.6851 14.879C55.444 14.6839 55.2252 14.4964 54.9955 14.3227C53.3919 13.1127 51.674 12.9291 49.8456 13.7439C48.3044 14.4234 46.99 15.5366 46.0598 16.9502C44.272 19.6389 43.4643 22.6233 43.6084 25.8629C43.6734 27.3226 43.9432 28.733 44.6247 30.0403C45.1908 31.1261 45.9477 31.9404 46.8573 32.4355C47.4707 32.4997 48.0667 32.6803 48.6136 32.9678C49.3026 33.0268 49.9964 32.9613 50.6625 32.7743C52.0743 32.3962 53.2592 31.6169 54.321 30.6288C54.5084 30.455 54.6894 30.2736 54.8828 30.0856C54.8979 30.1199 54.9109 30.1552 54.9218 30.1911C54.9343 30.2534 54.9429 30.3168 54.9543 30.3791C55.2122 31.8 55.9896 32.8028 57.3326 33.3187C58.5884 33.8017 59.8788 33.8105 61.1601 33.4438C61.4241 33.3687 61.6834 33.2775 61.9364 33.1705C61.9976 33.1449 62.0583 33.1159 62.1184 33.0897C63.0806 32.6459 63.9116 31.9879 64.6403 31.1824C66.1122 29.5544 66.9725 27.6122 67.4661 25.4885C67.8269 23.9387 67.8805 22.3533 68.0078 20.7762C68.1091 19.5482 68.2949 18.3388 68.8134 17.2048C69.4543 15.8053 70.4928 14.8353 71.9133 14.2833C72.8132 13.933 73.4037 14.2931 73.466 15.2615C73.5057 15.8339 73.4988 16.4085 73.4454 16.9797C73.2991 18.4552 73.1203 19.9269 72.9415 21.3992C72.5876 24.3342 72.2302 27.269 71.8694 30.2037C71.8152 30.6409 71.7768 31.0857 71.7286 31.5497L76.4418 31.7541C76.4494 31.6087 76.4543 31.5109 76.4597 31.413C76.5063 30.5589 76.5279 29.7031 76.606 28.8516C76.7365 27.4204 76.9001 25.9924 77.0551 24.5633C77.2176 23.0424 77.4571 21.5352 77.8677 20.0597C78.3233 18.4295 78.9767 16.9048 80.162 15.6637C80.5217 15.2872 80.9118 14.9533 81.4552 14.8719C82.0917 14.7735 82.653 15.079 82.8096 15.7042C82.9136 16.1206 82.9808 16.5731 82.9342 16.9944C82.809 18.1322 82.6481 19.2689 82.439 20.3942C82.0224 22.6381 81.5489 24.8754 81.3658 27.1526C81.2347 28.779 81.3528 30.3878 81.7992 31.9666C81.8723 32.224 81.9996 32.2945 82.2358 32.3339C83.3567 32.517 84.4771 32.706 85.5947 32.9159C86.4875 33.0837 87.3738 33.2848 88.2764 33.4739C88.2696 33.4431 88.2591 33.4134 88.245 33.3853ZM55.0052 22.532C54.7132 23.76 54.3102 24.9448 53.4954 25.9367C52.7304 26.8657 51.8235 27.5964 50.6268 27.8734C49.4604 28.1439 48.514 27.6592 48.0264 26.5569C47.515 25.406 47.476 24.2125 47.7555 23.0047C48.1055 21.4839 48.7025 20.0745 49.8304 18.9695C50.2781 18.5349 50.7803 18.1612 51.324 17.8579C52.478 17.2119 53.6725 17.53 54.4467 18.6066C54.9478 19.3034 55.1466 20.092 55.1667 20.9385C55.1667 21.0292 55.1667 21.1199 55.1667 21.2117L55.2208 21.2183C55.1472 21.656 55.1071 22.1014 55.0052 22.532Z" fill="#F9C2C2"/>
<path d="M43.7344 3.29288C43.619 5.31161 42.4657 6.72047 40.3864 6.74451C38.6561 6.76419 37.1852 5.22144 37.1863 3.43333C37.1879 2.53226 37.5399 1.6678 38.1667 1.02582C38.7935 0.383834 39.645 0.0155936 40.5381 0.000276556C42.0767 -0.024862 43.8298 1.66816 43.7344 3.29288Z" fill="#F9C2C2"/>
<path d="M70.768 39.0805C70.7502 39.4931 70.7323 39.9002 70.7139 40.3084C70.6153 42.6135 70.4972 44.9175 70.4229 47.2232C70.3579 49.2271 70.3048 51.2317 70.3092 53.2346C70.3124 55.3112 70.3796 57.3939 70.4446 59.4733C70.475 60.4482 70.5616 61.4226 70.6331 62.397C70.6451 62.5609 70.6061 62.6293 70.4403 62.6741C68.9277 63.0943 67.4184 63.5233 65.9069 63.949C65.837 63.9693 65.7623 63.9785 65.6609 63.9988C65.4123 60.6138 65.6003 57.2529 65.6989 53.8887C65.6989 53.8887 66.0624 41.7408 66.4839 39.8576C66.4856 39.8571 66.4875 39.8571 66.4893 39.8576C67.88 39.5925 69.2723 39.3373 70.664 39.0799C70.6987 39.0774 70.7334 39.0775 70.768 39.0805Z" fill="#F9C2C2"/>
<path d="M70.8601 33.7025C70.9283 35.5726 69.9873 36.9721 68.0738 37.1771C66.4811 37.3476 64.9924 36.0557 64.839 34.408C64.7624 33.5776 65.0119 32.7501 65.5338 32.1034C66.0558 31.4567 66.8085 31.0425 67.6301 30.9498C69.0457 30.7908 70.8054 32.1969 70.8601 33.7025Z" fill="#F9C2C2"/>
<path d="M62.1209 33.0869C62.0634 33.1333 62.0009 33.1731 61.9346 33.2055L61.9389 33.1678C62.0001 33.1421 62.0608 33.1153 62.1209 33.0869Z" fill="#F9C2C2"/>
<path d="M48.6162 32.9678C48.0012 32.9114 47.4039 32.7303 46.8599 32.4355C47.4733 32.4998 48.0692 32.6803 48.6162 32.9678Z" fill="#F9C2C2"/>
<path d="M33.1573 59.4092C32.8539 60.2683 32.5029 60.8984 32.0977 61.2186L33.1573 59.4092Z" fill="#F9C2C2"/>
<path d="M117.454 58.8503C116.038 57.4349 115.348 55.6686 114.992 53.7313C114.593 51.5596 114.566 49.373 114.663 47.1734C114.737 45.5017 114.791 43.8278 114.788 42.155C114.784 40.7888 114.427 39.5056 113.562 38.4154C112.687 37.312 111.558 36.7262 110.146 36.9863C108.592 37.2716 107.324 38.1039 106.292 39.2996C105.996 39.6422 105.739 40.0193 105.506 40.3237C105.249 39.7324 105.035 39.0876 104.704 38.5121C103.663 36.706 101.58 35.9436 99.7111 36.6415C98.5967 37.0584 97.7749 37.8514 97.0679 38.7821C96.8138 39.1165 96.5803 39.4646 96.3289 39.8122L96.1913 38.4788C96.083 38.499 95.9947 38.5121 95.908 38.5334C94.5959 38.8613 93.2854 39.204 91.9695 39.5171C91.7988 39.5581 91.7143 39.6078 91.6845 39.7313C91.6726 39.6259 91.6655 39.5707 91.6655 39.5707L91.4104 53.5805C91.306 54.0653 91.1515 54.5376 90.9493 54.9899C90.5912 55.7883 90.0679 56.4255 89.3046 56.8479C88.9096 57.0665 88.6052 56.9496 88.4882 56.52C88.4028 56.2144 88.3582 55.8987 88.3554 55.5812C88.3554 54.6352 88.3917 53.6898 88.4145 52.7438C88.4865 49.8152 88.5694 46.8871 88.6268 43.9584C88.6566 42.4244 88.532 40.9035 88.0797 39.4226C86.9843 35.8436 83.7029 33.6232 80.052 34.067C77.3671 34.3948 75.2391 35.7256 73.655 37.9334C73.4318 38.2449 73.2546 38.5892 73.0542 38.922L77.2116 41.1757C77.5908 40.6614 77.9105 40.1614 78.2951 39.722C79.3401 38.534 81.5028 38.5296 82.4395 40.2724C82.6712 40.7032 82.8357 41.1675 82.9271 41.649C83.0582 42.3654 83.0896 43.0993 83.1687 43.8448C82.9087 43.6759 82.6719 43.5119 82.4254 43.3638C80.7064 42.3255 78.9788 42.3255 77.2441 43.3267C75.7809 44.1634 74.5878 45.4079 73.8078 46.9111C72.3077 49.772 71.8092 52.8252 72.2854 56.032C72.5021 57.477 72.9133 58.8519 73.7254 60.081C74.3999 61.1018 75.2364 61.8325 76.192 62.2298C76.8089 62.2296 77.4202 62.3469 77.9939 62.5757C78.685 62.5622 79.3682 62.4245 80.0114 62.1691C81.3771 61.645 82.4753 60.7482 83.4298 59.6553C83.5983 59.4629 83.7597 59.2634 83.9331 59.0541C83.9515 59.0866 83.968 59.1202 83.9824 59.1547C84.0014 59.2153 84.0165 59.2776 84.0366 59.3383C84.4386 60.7242 85.3151 61.6407 86.7036 62.0134C88.0038 62.3626 89.2867 62.238 90.5235 61.7401C90.7785 61.6371 91.0269 61.5183 91.2673 61.3844C91.3259 61.3527 91.3833 61.3193 91.4402 61.2849C92.3514 60.7433 93.1104 60.0017 93.7524 59.1246C95.0493 57.3513 95.7027 55.3298 95.9779 53.1679C96.1778 51.5885 96.0684 50.0064 96.0353 48.4238C96.0098 47.192 96.0705 45.9701 96.4687 44.788C96.9622 43.3289 97.8946 42.2556 99.2517 41.5577C100.111 41.1156 100.735 41.4118 100.896 42.3687C100.995 42.9338 101.047 43.506 101.052 44.0797C101.059 45.5624 101.031 47.045 101.005 48.5282C100.955 51.4843 100.901 54.4407 100.843 57.3972C100.835 57.8404 100.843 58.2841 100.843 58.7508L105.55 58.4612C105.543 58.3158 105.538 58.218 105.533 58.1202C105.492 57.266 105.424 56.4124 105.415 55.5571C105.398 54.1204 105.415 52.6826 105.422 51.2453C105.429 49.7152 105.51 48.1915 105.768 46.6805C106.054 45.0115 106.547 43.4267 107.599 42.0687C107.918 41.6566 108.272 41.2855 108.804 41.1456C109.427 40.9817 110.016 41.2265 110.236 41.832C110.382 42.2353 110.495 42.6785 110.492 43.1026C110.485 44.247 110.442 45.3946 110.349 46.5357C110.165 48.8107 109.924 51.083 109.976 53.3701C110.013 55.0014 110.295 56.5889 110.902 58.1125C111.001 58.3612 111.136 58.4186 111.374 58.4322C112.508 58.4972 113.642 58.5683 114.774 58.6601C115.679 58.7333 116.581 58.841 117.498 58.9333C117.487 58.904 117.472 58.8762 117.454 58.8503ZM83.2781 51.5273C83.1156 52.7793 82.835 54.0002 82.1264 55.0718C81.4611 56.0768 80.6338 56.8971 79.4718 57.2977C78.3395 57.689 77.3487 57.3059 76.7484 56.2594C76.1216 55.1664 75.9601 53.9854 76.1124 52.7542C76.3042 51.2049 76.7533 49.7408 77.7615 48.5238C78.1622 48.0448 78.6231 47.6206 79.1326 47.262C80.2161 46.4969 81.4345 46.6887 82.3154 47.6806C82.8854 48.3211 83.1644 49.0845 83.2711 49.9245C83.2825 50.0146 83.2906 50.1048 83.2998 50.1977H83.354C83.3312 50.6442 83.3366 51.0912 83.2798 51.53L83.2781 51.5273Z" fill="#F9C2C2"/>
</g>
<defs>
<clipPath id="clip0_174_759">
<rect width="117" height="64" fill="white" transform="translate(0.5)"/>
</clipPath>
</defs>
</svg>
