<svg width="48" height="48" viewBox="0 0 48 48" fill="none" xmlns="http://www.w3.org/2000/svg">
<path fill-rule="evenodd" clip-rule="evenodd" d="M23.9849 5.12069C23.6111 5.30561 23.3427 5.90612 22.806 7.10715L18.5309 16.6735L18.5308 16.6736C18.3722 17.0286 18.2929 17.2061 18.1701 17.342C18.0615 17.4623 17.9288 17.5585 17.7805 17.6244C17.6129 17.6988 17.4192 17.7192 17.0316 17.76L6.58915 18.8594C5.27813 18.9974 4.62263 19.0664 4.3308 19.3637C4.07731 19.622 3.95951 19.9837 4.01237 20.3412C4.07323 20.7527 4.56256 21.1926 5.54115 22.0723L5.54219 22.0732L13.3425 29.085C13.632 29.3451 13.7767 29.4753 13.8684 29.6337C13.9496 29.7741 14.0003 29.9297 14.0173 30.0906C14.0365 30.2726 13.9961 30.4626 13.9153 30.8426L13.9152 30.8431L11.7365 41.0887L11.7365 41.0889C11.4629 42.3752 11.3262 43.0182 11.5195 43.3868C11.6875 43.7073 11.9959 43.9307 12.3532 43.9911C12.7645 44.0604 13.3355 43.7321 14.4774 43.0751L23.5733 37.8421C23.9109 37.6479 24.0797 37.551 24.2591 37.5128C24.4179 37.4793 24.5821 37.4793 24.7409 37.5128C24.9203 37.551 25.0891 37.6479 25.4266 37.8421L34.5226 43.0751C35.6646 43.7321 36.2356 44.0604 36.6469 43.9911C37.0041 43.9307 37.3125 43.7073 37.4806 43.3868C37.6739 43.0183 37.5371 42.3753 37.2636 41.0891L37.2636 41.0887L35.0848 30.8431C35.0039 30.4627 34.9635 30.2726 34.9828 30.0906C34.9997 29.9297 35.0505 29.7741 35.1316 29.6337C35.2231 29.4755 35.3677 29.3454 35.6564 29.0859L35.6574 29.085L43.4579 22.0732L43.4589 22.0724C44.4375 21.1926 44.9268 20.7527 44.9875 20.3412C45.0404 19.9837 44.9226 19.622 44.6692 19.3637C44.3774 19.0664 43.722 18.9974 42.4109 18.8594L31.9685 17.76C31.5809 17.7192 31.3871 17.6988 31.2194 17.6244C31.0713 17.5585 30.9385 17.4623 30.83 17.342C30.7073 17.2063 30.6281 17.0292 30.4699 16.6755L30.469 16.6735L26.194 7.10715C25.6573 5.90612 25.3888 5.30561 25.0151 5.12069C24.6906 4.96002 24.3094 4.96002 23.9849 5.12069Z" fill="#0E2825"/>
</svg>
