<svg width="48" height="48" viewBox="0 0 48 48" fill="none" xmlns="http://www.w3.org/2000/svg">
<g clip-path="url(#clip0_164_982)">
<path d="M23.5007 14.6762L25.2346 18.557C25.4731 19.0918 25.7708 19.7571 26.3849 20.4363C26.9275 21.0379 27.591 21.5187 28.3323 21.8473C29.1711 22.2192 29.8979 22.2955 30.4808 22.3572L34.7164 22.8026L31.5511 25.6469V25.6503C31.1158 26.0416 30.574 26.5293 30.1163 27.3208C29.7101 28.0216 29.4567 28.8001 29.3728 29.6053C29.2734 30.5182 29.4278 31.2307 29.5516 31.8016L30.4349 35.9577L26.7487 33.8356C26.241 33.5429 25.6088 33.1794 24.7115 32.9886C23.9156 32.8193 23.0927 32.8193 22.2968 32.9886C21.4003 33.1794 20.7666 33.5436 20.261 33.8349L16.5714 35.9577L17.4498 31.8016C17.5715 31.23 17.7224 30.5189 17.6264 29.6115C17.5434 28.8045 17.2897 28.0243 16.8823 27.3222C16.426 26.5293 15.8835 26.0437 15.4467 25.6496L12.2829 22.8054L16.5171 22.36C17.1013 22.2982 17.8281 22.2212 18.6683 21.8494C19.4098 21.5213 20.0734 21.0407 20.6157 20.439C21.2305 19.7585 21.5282 19.0925 21.7675 18.557L23.5007 14.6762ZM23.5007 5.00082C23.3222 5.00094 23.1461 5.04201 22.986 5.12084C22.6118 5.30606 22.3434 5.90614 21.8071 7.10767L17.5319 16.6742C17.3733 17.0287 17.294 17.2063 17.1709 17.3422C17.0624 17.4626 16.9297 17.5589 16.7814 17.6246C16.6138 17.6995 16.4197 17.7196 16.0323 17.7633L5.58934 18.8601C4.27832 18.9989 3.62246 19.0682 3.33104 19.3645C3.20586 19.4918 3.11195 19.6463 3.05669 19.8159C3.00142 19.9855 2.98629 20.1655 3.0125 20.3419C3.0737 20.7533 3.56264 21.1931 4.54261 22.0762L12.3427 29.0857C12.632 29.3458 12.7767 29.4755 12.8685 29.6344C12.9499 29.7744 13.0006 29.9299 13.0173 30.0909C13.0368 30.2733 12.9965 30.4634 12.9151 30.8436L10.7368 41.0892C10.4634 42.3754 10.3264 43.0185 10.5198 43.3876C10.6026 43.5458 10.7211 43.6826 10.8659 43.7875C11.0107 43.8923 11.1779 43.9622 11.3544 43.9918C11.3914 43.9977 11.4289 44.0007 11.4664 44.0008C11.8704 44.0008 12.4366 43.6748 13.4785 43.0754L22.5743 37.8426C22.9116 37.6484 23.0806 37.5512 23.26 37.5131C23.419 37.4798 23.5831 37.4798 23.742 37.5131C23.9215 37.5512 24.0898 37.6484 24.4278 37.8426L33.5229 43.0754C34.5662 43.6748 35.1309 44.0008 35.535 44.0008C35.5725 44.0007 35.6099 43.9977 35.647 43.9918C35.8234 43.9621 35.9905 43.8922 36.1353 43.7873C36.2801 43.6825 36.3986 43.5457 36.4816 43.3876C36.6749 43.0185 36.5379 42.3754 36.2646 41.0892L34.0849 30.8436C34.0042 30.4634 33.9638 30.2733 33.9833 30.0909C34.0001 29.9299 34.0508 29.7744 34.1322 29.6344C34.2233 29.4755 34.3686 29.3458 34.658 29.0857L42.458 22.0735C43.4373 21.1931 43.927 20.7554 43.9882 20.3391C44.0138 20.1632 43.9985 19.9838 43.9434 19.8148C43.8883 19.6457 43.7948 19.4916 43.6703 19.3645C43.3782 19.0669 42.723 18.9975 41.412 18.8601L30.969 17.7606C30.5809 17.7196 30.3876 17.6995 30.2199 17.6218C30.0716 17.5561 29.9389 17.4599 29.8305 17.3395C29.7074 17.2007 29.6281 17.0259 29.4695 16.6714L25.1942 7.1049C24.6573 5.90336 24.3888 5.30121 24.0119 5.11806C23.8516 5.03915 23.6752 4.99809 23.4965 4.99805L23.5007 5.00082Z" fill="#0E2825"/>
</g>
<defs>
<clipPath id="clip0_164_982">
<rect width="41" height="39" fill="white" transform="translate(3 5)"/>
</clipPath>
</defs>
</svg>
