<svg width="44" height="44" viewBox="0 0 44 44" fill="none" xmlns="http://www.w3.org/2000/svg">
<path d="M36.7029 15.8125L38.6587 13.8703C39.0654 13.4664 39.0654 12.8133 38.6587 12.4094L37.1875 10.9484C36.7808 10.5445 36.1231 10.5445 35.7163 10.9484L33.925 12.7273C31.2337 10.3641 27.8327 8.78281 24.0769 8.36172V4.125H26.5C27.0712 4.125 27.5385 3.66094 27.5385 3.09375V1.03125C27.5385 0.464063 27.0712 0 26.5 0H17.5C16.9288 0 16.4615 0.464063 16.4615 1.03125V3.09375C16.4615 3.66094 16.9288 4.125 17.5 4.125H19.9231V8.37031C10.9577 9.39297 4 16.9469 4 26.125C4 35.9992 12.0567 44 22 44C31.9433 44 40 35.9992 40 26.125C40 22.2836 38.7798 18.7258 36.7029 15.8125ZM22 39.875C14.35 39.875 8.15385 33.7219 8.15385 26.125C8.15385 18.5281 14.35 12.375 22 12.375C29.65 12.375 35.8462 18.5281 35.8462 26.125C35.8462 33.7219 29.65 39.875 22 39.875ZM23.0385 30.25H20.9615C20.3904 30.25 19.9231 29.7859 19.9231 29.2188V17.5312C19.9231 16.9641 20.3904 16.5 20.9615 16.5H23.0385C23.6096 16.5 24.0769 16.9641 24.0769 17.5312V29.2188C24.0769 29.7859 23.6096 30.25 23.0385 30.25Z" fill="#82B8B2"/>
</svg>
